<?xml version="1.0" standalone="no"?>
<!DOCTYPE svg PUBLIC "-//W3C//DTD SVG 20010904//EN"
 "http://www.w3.org/TR/2001/REC-SVG-20010904/DTD/svg10.dtd">
<svg version="1.0" xmlns="http://www.w3.org/2000/svg"
 width="512.000000pt" height="512.000000pt" viewBox="0 0 512.000000 512.000000"
 preserveAspectRatio="xMidYMid meet">
<metadata>
Created by potrace 1.14, written by Peter Selinger 2001-2017
</metadata>
<g transform="translate(0.000000,512.000000) scale(0.100000,-0.100000)"
fill="#000000" stroke="none">
<path d="M2424 4702 c2 -4 -19 -9 -47 -10 -58 -4 -112 -9 -112 -12 0 -1 -13
-3 -30 -6 -41 -5 -58 -9 -70 -15 -5 -2 -25 -4 -42 -4 -18 0 -33 -3 -33 -8 0
-5 -6 -7 -12 -4 -7 2 -28 -2 -46 -10 -18 -7 -37 -11 -42 -8 -5 3 -21 -2 -35
-11 -14 -9 -25 -13 -25 -9 0 4 -7 2 -15 -5 -8 -6 -19 -9 -25 -5 -5 3 -10 1
-10 -4 0 -6 -11 -11 -25 -11 -14 0 -25 -5 -25 -12 0 -6 -3 -9 -6 -5 -4 3 -19
0 -34 -8 -15 -8 -30 -11 -33 -8 -4 3 -9 -2 -13 -11 -3 -9 -10 -14 -14 -11 -4
2 -30 -7 -59 -20 -28 -14 -54 -25 -58 -26 -5 0 -16 -8 -25 -16 -10 -9 -18 -12
-18 -7 0 5 -7 0 -16 -11 -8 -11 -17 -18 -20 -16 -9 6 -104 -49 -104 -60 0 -6
-4 -8 -9 -5 -4 3 -21 -6 -37 -19 -16 -14 -34 -25 -41 -25 -6 0 -13 -3 -15 -8
-2 -4 -23 -23 -48 -42 -25 -19 -48 -39 -52 -45 -4 -5 -8 -6 -8 -2 0 4 -16 -8
-37 -28 -20 -19 -40 -35 -45 -35 -4 0 -8 -6 -8 -14 0 -8 -5 -18 -12 -22 -7 -4
-8 -3 -4 4 5 8 2 10 -8 6 -9 -3 -14 -9 -12 -13 5 -9 -41 -51 -48 -44 -3 4 -6
1 -6 -5 0 -6 -18 -30 -40 -53 -22 -23 -40 -46 -40 -51 0 -5 -4 -6 -10 -3 -5 3
-10 2 -10 -3 0 -5 -8 -18 -18 -30 -9 -11 -25 -29 -34 -40 -9 -11 -14 -23 -11
-26 4 -3 2 -6 -4 -6 -12 0 -83 -94 -83 -110 0 -6 -4 -10 -10 -10 -5 0 -10 -6
-10 -14 0 -8 -3 -16 -7 -18 -10 -4 -42 -57 -50 -80 -3 -10 -9 -18 -14 -18 -5
0 -9 -6 -9 -14 0 -7 -7 -19 -15 -26 -9 -7 -13 -15 -10 -18 3 -3 -7 -25 -21
-49 -14 -24 -22 -48 -19 -53 4 -6 0 -13 -9 -16 -8 -3 -17 -12 -20 -20 -4 -10
-2 -12 6 -8 7 4 2 -6 -10 -23 -12 -17 -19 -33 -15 -37 3 -3 0 -6 -7 -6 -7 0
-11 -3 -8 -6 4 -3 0 -21 -8 -40 -8 -19 -11 -34 -7 -34 5 0 3 -4 -4 -8 -11 -7
-17 -27 -30 -94 -3 -16 -9 -28 -13 -28 -5 0 -7 -8 -5 -17 1 -10 0 -22 -4 -28
-3 -5 -7 -17 -9 -25 -6 -31 -14 -76 -15 -97 -1 -13 -4 -23 -7 -23 -3 0 -7 -12
-8 -27 -2 -28 -9 -68 -12 -68 -4 0 -11 -147 -12 -255 -1 -90 2 -124 10 -122 7
1 12 -1 12 -5 0 -10 81 -9 98 1 6 4 12 3 12 -2 0 -5 12 -7 28 -4 l28 4 1 116
c1 64 4 144 8 177 4 33 8 69 9 80 1 11 4 25 8 30 3 6 5 25 4 43 -1 17 1 32 4
32 7 0 9 9 13 58 1 17 6 32 10 32 5 0 7 8 5 18 -1 9 1 23 5 29 5 7 10 22 13
33 2 11 6 30 9 42 2 12 9 26 15 32 5 5 10 23 10 38 0 15 4 28 9 28 5 0 11 13
14 29 3 16 13 35 21 43 11 11 12 18 4 26 -8 8 -7 13 5 18 9 3 17 12 17 20 0 8
5 14 11 14 5 0 8 4 5 9 -7 11 25 71 37 71 5 0 6 4 2 9 -3 5 1 16 9 24 8 8 12
17 9 21 -4 3 -1 6 6 6 7 0 9 5 6 10 -3 6 1 13 9 16 9 3 14 10 11 14 -3 5 3 13
12 19 10 6 14 11 10 11 -5 0 6 18 23 40 17 22 29 40 25 40 -3 0 3 10 14 22 11
11 18 25 15 30 -3 5 -2 7 3 6 4 -2 18 7 30 20 13 12 20 22 15 22 -4 0 1 7 12
15 11 8 15 19 10 27 -4 7 -4 10 0 6 9 -7 162 142 159 154 -2 5 0 7 5 5 4 -1
21 10 37 26 16 15 33 27 37 27 5 0 8 7 8 16 0 8 4 12 10 9 5 -3 20 3 32 15 41
38 83 70 91 70 4 0 20 11 34 24 15 14 30 23 35 20 4 -3 8 -1 8 3 0 11 60 47
60 36 0 -4 4 -3 8 3 11 16 139 84 146 77 3 -4 6 -1 6 5 0 7 6 12 13 12 6 0 26
7 42 16 17 9 37 17 45 19 8 2 29 9 45 16 17 6 39 14 49 16 11 2 26 9 35 16 12
10 13 9 7 -2 -6 -8 0 -7 18 4 15 10 37 15 51 13 13 -3 22 -1 19 3 -3 5 1 10 8
10 15 1 31 5 38 8 3 2 19 5 35 7 48 8 70 12 70 14 0 1 14 3 31 5 17 1 36 5 43
9 6 4 11 2 11 -4 0 -6 5 -8 13 -3 20 13 36 14 212 18 94 1 175 -1 180 -5 6 -5
17 -5 24 0 8 4 26 4 40 0 14 -5 46 -11 71 -14 92 -11 135 -19 140 -25 3 -4 14
-8 25 -8 27 -1 69 -11 102 -24 31 -12 62 -20 81 -21 6 -1 12 -5 12 -10 0 -4 3
-7 8 -6 8 3 56 -15 122 -45 25 -12 47 -21 50 -22 18 -4 89 -42 86 -46 -3 -3 4
-6 16 -6 12 -1 24 -6 27 -10 3 -4 15 -13 26 -19 45 -24 69 -40 87 -54 10 -8
21 -14 23 -13 3 1 16 -9 31 -22 15 -14 31 -22 36 -19 4 3 8 2 7 -3 -3 -20 2
-27 11 -13 7 11 10 12 10 2 0 -17 26 -43 34 -35 3 4 6 -2 6 -11 0 -12 5 -16
15 -12 8 3 15 1 15 -5 0 -6 7 -17 15 -25 8 -9 15 -12 15 -8 0 4 26 -21 58 -55
32 -33 63 -61 70 -61 7 0 11 -4 9 -8 -1 -5 12 -22 28 -40 41 -43 55 -60 55
-67 0 -3 14 -19 30 -35 17 -16 30 -34 30 -40 0 -5 5 -10 10 -10 6 0 10 -7 10
-15 0 -8 5 -15 10 -15 6 0 10 -7 10 -15 0 -8 5 -15 12 -15 6 0 8 -3 5 -7 -4
-3 2 -12 13 -20 11 -8 20 -23 20 -34 0 -10 5 -19 11 -19 5 0 7 -4 4 -10 -3 -5
-1 -10 4 -10 6 0 21 -21 33 -47 12 -27 26 -49 30 -51 4 -2 8 -9 8 -16 0 -7 11
-34 25 -60 13 -25 22 -46 19 -46 -2 0 2 -10 11 -23 8 -13 12 -27 8 -30 -3 -4
-1 -7 5 -7 7 0 12 -11 12 -25 0 -14 5 -25 12 -25 6 0 8 -3 5 -7 -4 -3 -2 -12
4 -20 6 -7 9 -13 5 -13 -3 0 0 -15 8 -34 8 -19 12 -37 9 -40 -3 -3 0 -12 7
-20 32 -40 29 -40 -656 -41 -362 0 -665 -4 -671 -8 -7 -5 -13 -4 -13 0 0 10
-41 10 -58 -1 -7 -4 -24 -10 -39 -12 -15 -3 -33 -10 -40 -16 -7 -6 -13 -7 -13
-3 0 4 -7 2 -15 -5 -8 -7 -15 -9 -15 -4 0 5 -5 2 -10 -6 -5 -8 -15 -15 -22
-15 -7 -1 -12 -6 -11 -13 2 -6 -4 -9 -12 -6 -8 4 -15 1 -15 -6 0 -6 -4 -8 -10
-5 -5 3 -10 -1 -10 -9 0 -9 -7 -16 -15 -16 -8 0 -15 -7 -15 -16 0 -8 -4 -12
-10 -9 -5 3 -10 2 -10 -3 0 -5 -11 -22 -25 -38 -29 -34 -78 -127 -78 -149 0
-8 -4 -15 -8 -15 -4 0 -6 -9 -4 -20 2 -11 0 -22 -4 -24 -6 -4 -7 -161 -1 -176
1 -3 1 -13 0 -24 -1 -12 2 -16 11 -11 8 5 10 4 5 -3 -9 -14 46 -133 77 -166
12 -14 29 -33 38 -43 19 -22 71 -68 81 -71 40 -14 67 -30 61 -35 -3 -4 6 -7
20 -7 15 0 27 -3 27 -7 0 -5 10 -9 23 -10 33 -3 51 -8 65 -16 7 -5 12 -3 12 3
0 7 5 8 13 3 16 -10 437 -13 457 -2 12 6 15 28 16 96 l1 89 -221 1 c-243 0
-296 3 -296 15 0 4 -8 8 -19 8 -10 0 -34 11 -54 24 -36 25 -81 66 -72 66 3 0
-3 10 -15 22 -18 19 -22 32 -19 55 0 3 -5 10 -13 14 -16 9 -16 165 0 181 6 6
8 17 5 26 -4 10 -2 13 5 8 7 -4 12 -1 12 8 0 9 9 25 20 36 11 11 18 20 14 20
-3 0 8 12 23 26 35 32 107 66 153 70 19 2 386 5 815 6 687 3 780 5 776 18 -2
8 -5 37 -8 65 -2 27 -8 52 -12 55 -4 3 -8 14 -8 25 -1 19 -10 60 -13 60 -1 0
-3 16 -6 34 -2 19 -8 37 -12 40 -6 6 -8 14 -14 64 -1 9 -6 17 -10 17 -4 0 -8
9 -8 19 0 11 -4 22 -10 26 -5 3 -7 12 -3 20 3 8 0 15 -7 15 -6 0 -9 4 -5 9 3
5 1 12 -5 16 -6 4 -8 10 -5 15 3 5 1 11 -5 15 -6 4 -8 11 -5 16 4 5 2 9 -3 9
-5 0 -15 18 -22 40 -7 22 -18 40 -23 40 -6 0 -7 3 -4 6 6 7 -16 55 -40 84 -6
8 -12 18 -13 22 -2 18 -15 44 -27 56 -7 8 -11 18 -8 23 4 5 1 9 -5 9 -6 0 -16
12 -22 28 -7 15 -21 35 -31 44 -10 9 -18 20 -18 25 0 4 -9 18 -19 31 -11 12
-20 25 -20 30 0 6 -37 52 -87 107 -10 11 -17 23 -15 28 1 4 -5 7 -15 7 -9 0
-14 3 -10 6 5 5 -178 194 -189 194 -2 0 -19 14 -37 31 -17 17 -52 45 -77 62
-25 17 -50 36 -57 42 -35 29 -41 33 -47 28 -3 -4 -6 -1 -6 5 0 7 -6 12 -14 12
-8 0 -16 7 -20 15 -3 8 -9 14 -13 13 -4 -1 -26 9 -48 23 -22 13 -52 31 -67 38
-16 8 -28 18 -28 23 0 5 -5 6 -10 3 -6 -3 -22 3 -36 14 -15 11 -30 18 -35 15
-5 -3 -9 0 -9 7 0 7 -3 9 -7 6 -3 -4 -17 0 -30 8 -13 9 -28 13 -33 10 -6 -3
-10 1 -10 10 0 9 -4 14 -8 11 -5 -3 -21 1 -35 9 -15 8 -30 14 -32 14 -15 0
-91 26 -99 33 -6 4 -19 8 -30 8 -12 0 -41 7 -66 16 -45 16 -72 22 -120 29 -14
2 -25 4 -25 5 0 2 -15 4 -73 14 -18 3 -37 8 -42 11 -6 3 -10 2 -10 -4 0 -5
-12 -4 -27 4 -16 8 -29 11 -31 6 -2 -5 -18 -5 -38 1 -20 5 -42 7 -50 4 -8 -3
-14 0 -14 6 0 7 -6 6 -16 -3 -13 -10 -17 -10 -25 2 -7 12 -9 12 -9 -1 0 -9 -3
-11 -8 -5 -8 12 -22 13 -39 2 -6 -4 -14 -3 -17 2 -6 9 -60 6 -77 -4 -5 -4 -9
-1 -9 6 0 10 -3 10 -11 2 -8 -8 -20 -8 -36 -2 -13 5 -22 5 -19 1z"/>
<path d="M1859 3045 c-1 0 -3 -44 -4 -97 l-2 -98 214 3 c207 2 213 1 214 -18
5 -70 4 -322 0 -330 -3 -5 -6 -12 -6 -15 -5 -33 -19 -70 -26 -70 -5 0 -9 -7
-9 -15 0 -8 -4 -15 -10 -15 -5 0 -10 -5 -10 -10 0 -13 -50 -65 -50 -53 0 4 -7
-1 -15 -11 -8 -11 -15 -17 -15 -13 0 4 -10 1 -22 -7 -13 -8 -43 -18 -68 -22
-25 -4 -395 -7 -824 -7 l-778 -1 6 -50 c8 -62 13 -91 16 -91 1 0 3 -11 4 -25
0 -14 5 -31 9 -37 5 -7 5 -17 2 -23 -3 -5 -2 -10 3 -10 5 0 9 -6 10 -12 2 -27
13 -72 23 -90 5 -10 7 -23 4 -28 -3 -6 -1 -10 5 -10 7 0 10 -6 8 -12 -3 -7 1
-24 8 -37 7 -14 11 -28 8 -33 -3 -4 -1 -8 4 -8 6 0 16 -20 23 -45 7 -25 17
-45 21 -45 4 0 8 -9 8 -20 0 -11 5 -20 10 -20 6 0 9 -3 8 -8 -5 -12 34 -92 44
-92 5 0 6 -5 2 -12 -4 -6 1 -17 11 -25 11 -7 16 -13 12 -13 -8 0 44 -83 56
-88 4 -2 5 -8 1 -13 -3 -5 0 -9 7 -9 7 0 10 -3 6 -6 -3 -3 -2 -11 3 -18 47
-57 60 -75 60 -81 0 -3 6 -12 13 -19 6 -7 21 -25 32 -41 11 -16 32 -41 48 -56
15 -16 27 -31 27 -34 0 -12 28 -34 34 -28 3 4 6 -1 6 -10 0 -9 5 -17 10 -17 6
0 10 -8 10 -17 0 -9 2 -14 5 -11 3 3 32 -19 63 -49 107 -103 119 -113 130
-113 6 0 14 -9 17 -20 4 -11 11 -18 16 -15 5 4 9 1 9 -6 0 -7 3 -10 6 -7 3 4
19 -8 35 -24 16 -17 29 -28 29 -24 0 4 15 -4 33 -18 19 -15 39 -26 45 -26 6 0
17 -9 25 -20 8 -11 16 -18 19 -15 3 3 11 -1 18 -10 7 -8 18 -15 25 -15 7 0 18
-6 25 -14 6 -8 18 -12 26 -9 9 3 14 -1 14 -13 0 -9 3 -14 6 -11 4 4 28 -5 53
-18 54 -29 140 -67 157 -69 7 -1 19 -8 28 -15 9 -7 16 -10 16 -6 0 4 7 1 17
-6 9 -8 17 -13 17 -11 1 4 15 0 78 -23 26 -9 52 -14 58 -10 5 3 10 1 10 -6 0
-6 8 -9 20 -6 10 3 24 -1 31 -9 6 -8 15 -11 21 -8 5 3 16 0 25 -8 14 -11 16
-11 8 2 -7 12 -6 13 6 4 8 -6 21 -12 29 -12 19 -1 74 -10 78 -13 1 -1 10 -2
20 -3 9 -1 22 -4 27 -7 6 -4 18 -5 28 -4 9 2 17 -2 17 -8 0 -8 3 -8 8 -2 9 13
42 16 42 3 0 -5 4 -6 10 -3 5 3 26 2 45 -4 22 -6 33 -6 29 0 -3 6 4 7 18 4 39
-10 97 -12 110 -4 7 4 18 3 25 -3 9 -7 17 -7 28 2 12 10 15 10 15 -1 0 -12 2
-12 9 0 7 11 9 11 14 0 4 -9 8 -10 14 -4 4 6 28 11 53 11 91 3 135 7 145 14 6
3 19 6 30 5 11 0 37 5 58 12 29 9 37 9 37 0 0 -7 3 -8 8 -2 7 9 15 12 52 20 8
2 34 8 58 14 23 7 46 9 51 6 5 -3 11 0 13 5 2 6 12 13 23 15 11 2 21 4 23 5 1
2 5 3 10 4 68 19 121 39 116 47 -3 5 -2 9 3 8 23 -4 53 3 65 14 7 8 21 13 30
11 9 -1 19 4 22 12 3 8 14 14 25 14 11 0 27 8 37 17 10 10 18 17 18 15 2 -6
41 12 54 25 8 7 18 11 23 8 5 -4 9 -2 9 3 0 9 50 37 63 34 4 -1 7 5 7 14 0 8
4 13 8 10 7 -4 96 56 139 93 7 6 17 11 22 11 5 0 17 10 25 22 9 12 16 19 16
16 0 -4 16 7 37 25 49 43 234 227 229 227 -2 0 8 13 22 28 40 41 81 92 75 92
-2 0 2 7 9 15 7 8 18 20 23 27 19 23 111 172 136 218 13 25 29 48 34 52 6 4 7
8 3 8 -4 0 7 26 23 57 16 31 28 62 25 70 -3 7 0 12 6 10 7 -1 13 4 14 11 1 6
3 15 4 20 1 4 2 10 1 15 0 4 3 7 9 7 5 0 7 7 4 15 -4 8 -1 15 7 15 7 0 9 3 6
7 -4 3 -3 11 2 17 6 6 11 23 13 38 2 14 9 33 16 41 10 11 10 17 1 22 -8 6 -8
10 2 15 7 5 14 19 16 32 2 13 6 30 10 38 3 8 7 22 7 30 1 8 4 20 7 25 4 6 6
22 5 37 -1 14 2 24 6 22 4 -3 8 5 9 18 1 23 7 92 11 116 1 6 4 12 8 12 3 0 5
16 3 36 -1 21 0 42 4 47 10 17 11 107 1 113 -5 3 -4 11 2 19 11 13 10 42 -3
61 -3 6 -3 14 1 18 11 12 9 72 -3 82 -16 14 -35 15 -35 3 0 -8 -4 -9 -13 0 -8
6 -17 8 -20 4 -4 -3 -32 -5 -63 -4 -42 2 -55 -1 -51 -11 2 -7 0 -23 -4 -35 -5
-13 -5 -23 -1 -23 4 0 7 -23 7 -50 0 -28 -2 -50 -5 -50 -3 0 -6 -33 -7 -73 -2
-100 -7 -157 -13 -157 -3 0 -5 -15 -5 -32 1 -18 -2 -38 -8 -45 -5 -7 -7 -18
-4 -25 2 -7 -2 -21 -11 -30 -10 -12 -11 -18 -3 -18 9 0 9 -5 1 -20 -6 -11 -8
-20 -4 -20 3 0 1 -7 -7 -16 -7 -8 -14 -25 -15 -37 -8 -55 -11 -69 -20 -75 -5
-4 -9 -11 -10 -17 -1 -27 -17 -65 -28 -65 -6 0 -4 -5 4 -10 8 -5 10 -10 4 -10
-6 0 -16 -18 -23 -40 -7 -25 -16 -38 -23 -34 -7 4 -8 2 -4 -5 4 -6 1 -23 -8
-36 -9 -13 -16 -31 -16 -40 0 -8 -5 -15 -11 -15 -5 0 -8 -4 -5 -9 3 -5 -1 -12
-10 -15 -9 -4 -14 -9 -11 -13 7 -7 -30 -73 -47 -85 -6 -4 -7 -8 -3 -8 4 0 -13
-29 -38 -65 -25 -36 -45 -70 -45 -76 0 -5 -4 -8 -9 -4 -5 3 -12 -4 -16 -15 -3
-11 -11 -20 -16 -20 -5 0 -9 -6 -9 -13 0 -7 -13 -24 -30 -37 -16 -14 -29 -29
-30 -33 0 -5 -25 -33 -56 -63 -32 -32 -52 -59 -48 -66 4 -6 3 -8 -3 -5 -6 4
-22 -4 -34 -18 -13 -13 -30 -25 -37 -25 -7 0 -11 -4 -7 -9 3 -5 -4 -12 -15
-16 -11 -3 -28 -17 -39 -31 -11 -14 -23 -24 -26 -24 -4 1 -20 -10 -36 -24 -16
-14 -29 -23 -29 -19 0 4 -7 -2 -15 -13 -8 -10 -15 -15 -15 -10 0 6 -7 1 -15
-10 -8 -10 -15 -15 -15 -11 0 4 -10 -1 -22 -13 -12 -11 -27 -20 -34 -20 -6 0
-15 -7 -18 -16 -3 -8 -10 -13 -15 -10 -5 3 -14 -1 -21 -9 -7 -8 -16 -12 -21
-9 -5 3 -9 0 -9 -6 0 -6 -4 -9 -9 -6 -5 4 -11 3 -13 -1 -5 -13 -85 -53 -92
-46 -3 3 -6 0 -6 -7 0 -7 -2 -11 -5 -8 -3 3 -31 -7 -62 -23 -31 -16 -65 -29
-75 -29 -10 0 -18 -5 -18 -11 0 -5 -5 -7 -11 -3 -6 3 -15 0 -20 -7 -7 -12 -9
-11 -9 1 0 11 -2 12 -8 2 -5 -7 -17 -14 -28 -17 -72 -15 -164 -41 -160 -45 2
-3 -17 -5 -42 -5 -26 1 -53 -3 -59 -8 -7 -5 -22 -7 -33 -4 -11 3 -20 0 -20 -5
0 -6 -8 -4 -17 3 -14 12 -16 12 -8 0 6 -11 1 -13 -24 -9 -17 2 -31 1 -31 -4 0
-9 -29 -6 -47 5 -8 5 -13 4 -13 -2 0 -7 -19 -10 -50 -8 -27 1 -50 -1 -50 -4 0
-4 -13 -4 -30 1 -18 5 -30 5 -30 0 0 -5 -10 -6 -22 -2 -13 5 -49 8 -80 7 -32
0 -58 2 -58 5 0 3 -17 6 -38 8 -100 7 -131 10 -140 16 -6 3 -22 7 -36 8 -14 1
-26 5 -26 8 0 3 -8 6 -17 7 -28 3 -68 10 -68 12 0 3 -11 6 -51 14 -11 3 -37
12 -58 21 -21 9 -47 16 -58 16 -10 0 -16 5 -13 10 5 8 -15 13 -41 9 -4 0 -10
4 -13 10 -4 6 -19 12 -33 13 -15 1 -24 6 -22 10 5 7 -10 12 -28 9 -5 0 -8 3
-8 8 0 7 -27 20 -53 25 -4 0 -11 7 -16 14 -5 8 -12 14 -17 14 -13 -1 -118 60
-122 70 -2 4 -9 8 -16 8 -6 0 -27 13 -46 30 -19 16 -40 29 -45 30 -6 0 -17 9
-25 20 -8 11 -20 20 -28 20 -7 0 -10 5 -7 10 3 6 -1 10 -9 10 -9 0 -16 5 -16
10 0 6 -4 10 -10 10 -5 0 -20 11 -34 25 -14 14 -22 25 -18 25 4 0 -10 11 -30
25 -21 14 -42 34 -48 45 -6 11 -18 20 -26 20 -8 0 -12 5 -9 10 3 6 1 10 -4 10
-6 0 -11 7 -11 16 0 10 -6 14 -15 10 -10 -4 -15 1 -15 14 0 11 -7 20 -15 20
-8 0 -15 4 -15 10 0 5 -8 19 -18 31 -9 11 -27 33 -39 47 -13 15 -23 33 -23 40
0 7 -4 10 -10 7 -5 -3 -10 -1 -10 5 0 6 -12 27 -26 46 -15 19 -24 34 -20 34 6
0 -15 27 -42 56 -7 8 -10 14 -7 14 4 0 -3 16 -15 35 -12 19 -19 35 -16 35 3 0
-3 9 -14 20 -11 11 -20 29 -20 40 0 11 -4 20 -10 20 -5 0 -10 6 -10 14 0 7 -7
26 -14 42 -8 15 -13 31 -11 35 3 4 -2 9 -10 13 -8 3 -12 12 -9 21 3 8 1 15 -6
15 -6 0 -9 4 -5 9 3 5 1 12 -5 16 -6 4 -8 10 -5 15 3 5 1 11 -4 15 -5 3 -8 14
-6 25 2 13 -2 20 -11 20 -8 0 -12 4 -9 10 3 5 1 26 -4 47 -6 20 -8 39 -5 42 2
3 314 6 692 7 596 2 717 4 730 14 2 3 2 3 47 15 17 4 36 12 43 18 6 5 12 6 12
1 0 -4 7 1 15 12 8 10 15 15 15 10 0 -6 7 -1 15 10 8 10 15 15 15 11 0 -4 6
-3 13 3 47 40 65 59 61 63 -3 3 4 8 15 12 12 3 19 10 16 15 -3 4 2 13 10 20
20 16 65 107 58 114 -4 3 -2 6 3 6 5 0 11 11 12 26 1 14 6 33 10 42 5 9 8 63
7 120 0 57 3 106 7 108 5 3 5 10 1 17 -10 16 -11 237 -1 237 5 0 6 5 2 12 -4
7 -8 28 -9 48 l-1 35 -307 0 c-169 0 -308 0 -308 0z"/>
</g>
</svg>
